<svg width="563" height="458" viewBox="0 0 563 458" fill="none" xmlns="http://www.w3.org/2000/svg">
<path fill-rule="evenodd" clip-rule="evenodd" d="M251.609 17.7611C330.978 11.4497 417.706 -23.9601 478.437 27.4118C548.987 87.0904 573.258 186.717 559.165 277.922C543.722 377.861 479.22 420.693 381.799 448.584C290.166 474.819 242.98 443.185 163.066 391.326C103.727 352.818 26.8995 331.366 7.029 263.581C-13.8609 192.319 13.5738 112.902 66.0015 60.2083C113.048 12.9228 185.04 23.0546 251.609 17.7611Z" fill="#34495E"/>


<svg width="558" height="373" viewBox="0 0 558 373" fill="none" xmlns="http://www.w3.org/2000/svg">
<g clip-path="url(#clip0_17_161)">
<path d="M461.222 246.674H428.094C419.976 246.674 413.175 241.135 413.175 234.118C413.175 230.609 414.93 227.47 417.563 225.254C420.196 223.038 423.926 221.561 428.094 221.561H432.921C437.089 221.561 440.819 220.084 443.451 217.868C446.084 215.652 447.84 212.513 447.84 209.004C447.84 202.172 441.258 196.448 432.921 196.448H331.735C329.091 196.448 327.392 193.19 327.392 190.539C327.392 183.891 321.03 178.536 313.132 178.536H275.477C274.532 178.524 273.631 178.139 272.967 177.465C272.304 176.791 271.932 175.882 271.932 174.935C271.932 173.989 272.304 173.08 272.967 172.406C273.631 171.732 274.532 171.347 275.477 171.334H419.757C426.119 171.334 432.043 169.119 436.212 165.61C440.38 162.102 443.013 157.116 443.013 151.761C443.013 140.867 432.482 132.187 419.757 132.187H345.238C333.546 132.187 321.972 123.139 310.28 123.139H268.675C262.572 123.139 257.625 118.179 257.625 112.06C257.625 105.941 262.572 100.98 268.675 100.98H361.837C366.225 100.98 370.394 99.5033 373.246 97.1031C376.098 94.7022 377.853 91.3788 377.853 87.5008C377.853 80.1148 370.612 74.0206 361.837 74.0206H147.05C142.662 74.0206 138.494 75.4983 135.642 77.8986C132.79 80.2994 131.035 83.6229 131.035 87.5008C131.035 94.8868 138.274 100.98 147.05 100.98H152.535C159.775 100.98 165.918 105.966 165.918 112.244C165.918 115.384 164.382 118.154 161.969 120.185C159.556 122.216 156.265 123.508 152.535 123.508H125.988C121.381 123.508 116.993 125.171 113.922 127.756C110.85 130.341 108.876 133.849 108.876 137.912C108.876 145.852 116.554 152.131 125.769 152.131H152.754C161.53 152.131 168.77 158.224 168.77 165.61C168.77 169.303 167.015 172.627 164.163 175.028C161.311 177.428 157.362 178.906 152.974 178.906H128.84C124.892 178.906 121.381 180.198 118.749 182.414C116.115 184.63 114.58 187.584 114.58 190.908C114.58 197.556 120.942 202.911 128.84 202.911H148.367C159.556 202.911 168.551 210.481 168.551 219.899C168.551 224.516 166.357 228.947 162.627 231.902C158.897 235.041 153.851 236.887 148.367 236.887H121.162C115.677 236.887 110.631 238.734 107.121 241.873C103.391 244.828 101.197 249.074 101.197 253.691C101.197 262.924 110.192 270.495 121.162 270.495H205.165C214.442 270.495 223.556 275.665 232.833 275.665H248.133C253.981 275.665 258.722 280.419 258.722 286.283C258.722 292.147 253.981 296.901 248.133 296.901H210.894C206.067 296.901 201.899 298.562 198.827 301.148C195.756 303.733 193.781 307.426 193.781 311.304C193.781 319.244 201.46 325.707 210.894 325.707H439.064C443.89 325.707 448.059 324.045 451.13 321.46C454.201 318.875 456.176 315.181 456.176 311.304C456.176 303.363 448.497 296.901 439.064 296.901H432.262C425.242 296.901 419.757 292.099 419.757 286.375C419.757 283.421 421.073 280.835 423.487 278.989C425.681 277.143 428.971 275.85 432.482 275.85H461.222C466.049 275.85 470.217 274.188 473.289 271.603C476.361 269.018 478.335 265.324 478.335 261.447C478.335 253.137 470.656 246.674 461.222 246.674Z" fill="url(#paint0_linear_17_161)"/>
<path d="M486.926 305.317C478.887 309.316 468.217 304.175 468.217 304.175C468.217 304.175 470.588 292.553 478.632 288.56C486.671 284.561 497.337 289.697 497.337 289.697C497.337 289.697 494.965 301.319 486.926 305.317Z" fill="url(#paint1_linear_17_161)"/>
<path d="M50.7718 231.052C62.5109 238.106 79.3526 231.585 79.3526 231.585C79.3526 231.585 77.1503 213.628 65.4044 206.582C53.6653 199.527 36.8305 206.04 36.8305 206.04C36.8305 206.04 39.0327 223.997 50.7718 231.052Z" fill="url(#paint2_linear_17_161)"/>
<path d="M397.007 99.4573C393.992 99.4573 391.547 101.908 391.547 104.932C391.547 107.955 393.992 110.406 397.007 110.406C400.022 110.406 402.467 107.955 402.467 104.932C402.467 101.908 400.022 99.4573 397.007 99.4573Z" fill="#FF8C00"/>
<path d="M386.461 313.662C380.79 313.662 376.193 318.271 376.193 323.957C376.193 329.643 380.79 334.253 386.461 334.253C392.132 334.253 396.729 329.643 396.729 323.957C396.729 318.271 392.132 313.662 386.461 313.662Z" fill="#FF8C00"/>
<path d="M131.326 313.942C126.825 313.942 123.175 310.283 123.175 305.769C123.175 301.256 126.825 297.597 131.326 297.597C135.827 297.597 139.476 301.256 139.476 305.769C139.476 310.283 135.827 313.942 131.326 313.942Z" fill="#FF8C00"/>
<path d="M521.898 173.508C518.884 173.508 516.441 171.059 516.441 168.036C516.441 165.014 518.884 162.565 521.898 162.565C524.912 162.565 527.355 165.014 527.355 168.036C527.355 171.059 524.912 173.508 521.898 173.508Z" fill="#FF8C00"/>
<path d="M68.5534 307.879C62.9563 307.879 58.4189 303.33 58.4189 297.717C58.4189 292.105 62.9563 287.556 68.5534 287.556C74.1505 287.556 78.6879 292.105 78.6879 297.717C78.6879 303.33 74.1505 307.879 68.5534 307.879Z" fill="#E1E4E5"/>
<path d="M464.685 239.432C460.425 239.432 456.972 235.969 456.972 231.698C456.972 227.426 460.425 223.964 464.685 223.964C468.945 223.964 472.398 227.426 472.398 231.698C472.398 235.969 468.945 239.432 464.685 239.432Z" fill="#E1E4E5"/>
<path d="M426.611 59.3238C421.257 59.3238 416.917 54.9716 416.917 49.6028C416.917 44.234 421.257 39.8818 426.611 39.8818C431.966 39.8818 436.306 44.234 436.306 49.6028C436.306 54.9716 431.966 59.3238 426.611 59.3238Z" fill="#E1E4E5"/>
<path d="M110.67 93.5281C111.771 97.647 109.333 101.881 105.225 102.984C101.118 104.088 96.8952 101.644 95.7945 97.5248C94.6938 93.4059 97.1316 89.1721 101.239 88.0684C105.347 86.9648 109.57 89.4091 110.67 93.5281Z" fill="#E1E4E5"/>
<path d="M183.489 59.0869C177.831 59.0869 173.245 54.4881 173.245 48.8151C173.245 43.1422 177.831 38.5433 183.489 38.5433C189.147 38.5433 193.733 43.1422 193.733 48.8151C193.733 54.4881 189.147 59.0869 183.489 59.0869Z" fill="#E1E4E5"/>
<path d="M388.746 252.671C384.394 252.671 380.866 249.841 380.866 246.35C380.866 242.859 384.394 240.029 388.746 240.029C393.098 240.029 396.626 242.859 396.626 246.35C396.626 249.841 393.098 252.671 388.746 252.671Z" fill="#E1E4E5"/>
<path d="M114.152 48.5839H114.264C114.929 58.0276 121.934 58.1731 121.934 58.1731C121.934 58.1731 114.21 58.3248 114.21 69.2363C114.21 58.3248 106.486 58.1731 106.486 58.1731C106.486 58.1731 113.487 58.027 114.152 48.5839ZM175.38 280.993H175.488C176.127 290.409 182.851 290.554 182.851 290.554C182.851 290.554 175.436 290.704 175.436 301.584C175.436 290.704 168.02 290.554 168.02 290.554C168.02 290.554 174.742 290.409 175.38 280.993Z" fill="#E1E4E5"/>
<path d="M95.2084 199.794H460.905" stroke="#E1E4E5" stroke-width="11" stroke-linecap="round"/>
<path d="M342.814 131.869C342.814 96.5933 314.294 67.9967 279.113 67.9967C243.932 67.9967 215.412 96.5933 215.412 131.869C215.412 167.145 243.932 195.742 279.113 195.742C314.294 195.742 342.814 167.145 342.814 131.869Z" fill="#FF8C00"/>
<mask id="mask0_17_161" style="mask-type:alpha" maskUnits="userSpaceOnUse" x="213" y="67" width="129" height="130">
<g opacity="0.5">
<path d="M341.371 131.869C341.371 96.5933 312.851 67.9967 277.669 67.9967C242.488 67.9967 213.968 96.5933 213.968 131.869C213.968 167.145 242.488 195.742 277.669 195.742C312.851 195.742 341.371 167.145 341.371 131.869Z" fill="#FF8C00" stroke="white" stroke-width="1.149"/>
</g>
</mask>
<g mask="url(#mask0_17_161)">
<g opacity="0.5">
<path d="M151.408 98.7499C142.72 113.051 137.034 129.18 134.825 145.783C133.458 156.056 133.937 167.836 141.469 174.923C147.112 180.235 155.432 181.557 163.162 181.271C170.892 180.985 178.58 179.354 186.302 179.81C194.023 180.266 202.201 183.326 206.118 190.024C209.826 196.362 208.903 204.257 208.448 211.594C207.995 218.93 208.541 227.259 214.055 232.092C221.865 238.938 234.589 234.708 243.795 239.495C252.527 244.034 256.072 255.616 265.069 259.598C272.59 262.928 281.246 259.834 288.851 256.708C296.78 253.449 304.692 250.149 312.588 246.81" stroke="white" stroke-width="1.149"/>
<path d="M160.481 89.2875C151.978 103.254 146.411 119.007 144.249 135.224C142.912 145.256 143.381 156.762 150.752 163.684C156.277 168.871 164.42 170.163 171.987 169.883C179.553 169.604 187.078 168.011 194.637 168.457C202.196 168.902 210.2 171.892 214.035 178.433C217.663 184.623 216.759 192.334 216.315 199.499C215.87 206.664 216.404 214.798 221.803 219.52C229.447 226.206 241.902 222.075 250.913 226.749C259.46 231.183 262.931 242.494 271.738 246.385C279.098 249.636 287.571 246.615 295.017 243.561C302.777 240.378 310.522 237.156 318.25 233.895" stroke="white" stroke-width="1.149"/>
<path d="M169.083 79.8245C160.764 93.4999 155.317 108.923 153.203 124.801C151.893 134.624 152.353 145.89 159.564 152.666C164.97 157.746 172.937 159.009 180.34 158.736C187.743 158.463 195.105 156.904 202.5 157.339C209.896 157.776 217.726 160.703 221.478 167.107C225.03 173.168 224.144 180.718 223.71 187.733C223.275 194.749 223.797 202.713 229.079 207.336C236.558 213.883 248.743 209.837 257.56 214.415C265.922 218.756 269.318 229.83 277.934 233.639C285.136 236.823 293.425 233.864 300.709 230.875C308.302 227.758 315.88 224.603 323.441 221.41" stroke="white" stroke-width="1.149"/>
<path d="M178.112 70.3621C169.998 83.7037 164.688 98.7511 162.625 114.242C161.348 123.825 161.796 134.816 168.829 141.427C174.1 146.383 181.869 147.616 189.088 147.349C196.307 147.083 203.486 145.561 210.697 145.987C217.909 146.412 225.545 149.267 229.204 155.516C232.666 161.429 231.804 168.794 231.38 175.639C230.956 182.484 231.465 190.253 236.614 194.763C243.908 201.15 255.792 197.204 264.389 201.669C272.543 205.904 275.853 216.709 284.255 220.425C291.278 223.531 299.362 220.644 306.464 217.728C313.869 214.687 321.258 211.609 328.631 208.493" stroke="white" stroke-width="1.149"/>
<path d="M186.714 60.426C178.784 73.4766 173.594 88.194 171.578 103.346C170.33 112.719 170.768 123.47 177.641 129.937C182.793 134.784 190.386 135.99 197.441 135.729C204.497 135.469 211.513 133.98 218.561 134.396C225.609 134.813 233.072 137.606 236.647 143.717C240.032 149.501 239.189 156.705 238.774 163.4C238.36 170.095 238.858 177.695 243.891 182.107C251.019 188.353 262.633 184.493 271.036 188.86C279.004 193.004 282.24 203.572 290.452 207.206C297.315 210.245 305.216 207.422 312.158 204.569C319.394 201.594 326.615 198.584 333.822 195.537" stroke="white" stroke-width="1.149"/>
<path d="M195.741 50.9636C188.019 63.6798 182.964 78.0223 181 92.7862C179.785 101.921 180.212 112.396 186.905 118.697C191.923 123.421 199.318 124.596 206.188 124.342C213.061 124.088 219.893 122.637 226.758 123.043C233.622 123.449 240.89 126.17 244.372 132.126C247.668 137.761 246.847 144.782 246.444 151.306C246.04 157.829 246.524 165.235 251.427 169.534C258.368 175.621 269.679 171.86 277.862 176.116C285.624 180.153 288.776 190.45 296.774 193.992C303.458 196.953 311.151 194.202 317.912 191.422C324.96 188.524 331.993 185.59 339.012 182.62" stroke="white" stroke-width="1.149"/>
<path d="M204.815 41.5006C197.277 53.8842 192.342 67.8499 190.425 82.2266C189.24 91.1214 189.656 101.322 196.19 107.459C201.088 112.057 208.306 113.202 215.014 112.955C221.722 112.707 228.392 111.295 235.093 111.69C241.793 112.085 248.889 114.735 252.289 120.534C255.506 126.022 254.705 132.858 254.31 139.211C253.916 145.564 254.389 152.775 259.175 156.961C265.952 162.888 276.992 159.226 284.981 163.37C292.558 167.302 295.635 177.329 303.442 180.778C309.967 183.661 317.477 180.982 324.078 178.275C330.958 175.453 337.823 172.596 344.675 169.704" stroke="white" stroke-width="1.149"/>
<path d="M213.416 32.0382C206.045 44.1778 201.265 57.7183 199.378 71.8044C198.221 80.489 198.627 90.4494 205.002 96.441C209.78 100.932 216.823 102.05 223.367 101.808C229.911 101.567 236.418 100.187 242.956 100.573C249.494 100.959 256.415 103.547 259.732 109.209C262.871 114.568 262.09 121.242 261.705 127.446C261.321 133.648 261.783 140.69 266.451 144.777C273.062 150.565 283.834 146.989 291.628 151.036C299.02 154.873 302.021 164.665 309.637 168.033C316.004 170.848 323.332 168.232 329.771 165.589C336.483 162.833 343.181 160.043 349.865 157.22" stroke="white" stroke-width="1.149"/>
<path d="M222.445 22.5758C215.28 34.3813 210.634 47.548 208.801 61.2447C207.676 69.6901 208.071 79.3756 214.267 85.2019C218.911 89.5691 225.756 90.6558 232.116 90.4208C238.476 90.1858 244.8 88.8449 251.153 89.2197C257.507 89.5952 264.235 92.1111 267.458 97.6178C270.509 102.828 269.749 109.319 269.375 115.351C269.002 121.383 269.451 128.23 273.988 132.204C280.413 137.833 290.882 134.355 298.456 138.29C305.64 142.023 308.557 151.544 315.959 154.819C322.146 157.556 329.268 155.013 335.527 152.442C342.05 149.762 348.56 147.05 355.056 144.304" stroke="white" stroke-width="1.149"/>
<path d="M231.046 12.6397C224.082 24.1057 219.524 37.0377 217.754 50.3494C216.658 58.5846 217.043 68.0302 223.079 73.7116C227.603 77.97 234.271 79.03 240.468 78.8012C246.665 78.5724 252.827 77.2638 259.016 77.6294C265.206 77.9955 271.762 80.4493 274.901 85.8192C277.873 90.9007 277.133 97.2305 276.77 103.112C276.405 108.995 276.842 115.672 281.263 119.547C287.523 125.036 297.723 121.644 305.102 125.482C312.102 129.122 314.943 138.407 322.156 141.6C328.183 144.27 335.122 141.789 341.218 139.283C347.574 136.67 353.917 134.024 360.246 131.347" stroke="white" stroke-width="1.149"/>
<path d="M240.074 3.17734C233.317 14.3095 228.894 26.8653 227.176 39.7892C226.113 47.7856 226.486 56.9559 232.343 62.4725C236.733 66.6066 243.204 67.6355 249.216 67.4135C255.228 67.191 261.207 65.9209 267.214 66.2765C273.22 66.6321 279.58 69.0143 282.627 74.2276C285.511 79.1618 284.792 85.307 284.439 91.0182C284.086 96.7289 284.51 103.212 288.8 106.975C294.874 112.304 304.77 109.011 311.931 112.737C318.722 116.27 321.48 125.285 328.477 128.386C334.326 130.978 341.059 128.569 346.974 126.136C353.141 123.598 359.295 121.03 365.436 118.431" stroke="white" stroke-width="1.149"/>
<path d="M249.148 -6.28506C242.56 4.55559 238.288 16.6492 236.601 29.2308C235.567 36.986 235.931 45.8821 241.628 51.2334C245.898 55.2438 252.193 56.2422 258.042 56.0265C263.891 55.8107 269.707 54.5786 275.549 54.9236C281.391 55.268 287.578 57.5794 290.543 62.6366C293.349 67.4222 292.649 73.3834 292.306 78.9237C291.962 84.4634 292.375 90.7515 296.548 94.4019C302.457 99.5711 312.084 96.3776 319.05 99.992C325.656 103.42 328.338 112.164 335.145 115.172C340.836 117.686 347.385 115.35 353.139 112.989C359.138 110.528 365.125 108.037 371.099 105.515" stroke="white" stroke-width="1.149"/>
<path d="M257.75 -15.7481C251.346 -5.19862 247.193 6.56743 245.554 18.8073C244.548 26.3543 244.901 35.0092 250.44 40.2169C254.591 44.1191 260.709 45.0895 266.394 44.88C272.08 44.6699 277.733 43.4713 283.413 43.8064C289.092 44.1421 295.105 46.39 297.987 51.3105C300.714 55.9668 300.034 61.7676 299.701 67.158C299.366 72.5479 299.768 78.6669 303.824 82.2185C309.568 87.2478 318.926 84.1401 325.695 87.6569C332.117 90.9921 334.725 99.5002 341.342 102.427C346.873 104.873 353.238 102.6 358.832 100.303C364.663 97.9086 370.482 95.4847 376.289 93.0312" stroke="white" stroke-width="1.149"/>
<path d="M266.778 -25.2104C260.581 -14.9952 256.562 -3.60288 254.976 8.24765C254.003 15.5553 254.345 23.936 259.704 28.9771C263.721 32.7556 269.641 33.6956 275.143 33.4923C280.644 33.289 286.114 32.1284 291.61 32.4529C297.105 32.778 302.924 34.9545 305.712 39.7189C308.351 44.2285 307.694 49.8446 307.37 55.0635C307.047 60.2824 307.435 66.2069 311.36 69.6453C316.918 74.5155 325.972 71.5066 332.524 74.9115C338.738 78.141 341.261 86.3793 347.664 89.2123C353.015 91.5808 359.175 89.3801 364.588 87.1564C370.23 84.8376 375.861 82.4908 381.48 80.1148" stroke="white" stroke-width="1.149"/>
</g>
</g>
<path d="M278.391 173.134C301.191 173.134 319.674 154.601 319.674 131.74C319.674 108.878 301.191 90.3456 278.391 90.3456C255.591 90.3456 237.108 108.878 237.108 131.74C237.108 154.601 255.591 173.134 278.391 173.134Z" fill="white"/>
<path d="M292.822 123.284L274.692 141.798L263.807 130.691" stroke="#FF8C00" stroke-width="11.204" stroke-linecap="round" stroke-linejoin="round"/>
<path fill-rule="evenodd" clip-rule="evenodd" d="M146.764 119.539H112.939C101.263 119.539 91.7984 129.029 91.7984 140.737V174.652C91.7984 186.359 101.263 195.849 112.939 195.849H146.764C158.44 195.849 167.905 186.359 167.905 174.652V140.737C167.905 129.029 158.44 119.539 146.764 119.539Z" fill="#FF8C00"/>
<path d="M117.167 168.292C123.005 168.292 127.737 163.547 127.737 157.693C127.737 151.84 123.005 147.094 117.167 147.094C111.329 147.094 106.597 151.84 106.597 157.693C106.597 163.547 111.329 168.292 117.167 168.292Z" stroke="white" stroke-width="13.783" stroke-linecap="round" stroke-linejoin="round"/>
<path d="M127.737 157.693H150.992V167.232" stroke="white" stroke-width="13.783" stroke-linecap="round" stroke-linejoin="round"/>
<path fill-rule="evenodd" clip-rule="evenodd" d="M410.018 119.539H443.843C455.518 119.539 464.983 129.029 464.983 140.737V174.652C464.983 186.359 455.518 195.849 443.843 195.849H410.018C398.343 195.849 388.878 186.359 388.878 174.652V140.737C388.878 129.029 398.343 119.539 410.018 119.539Z" fill="#FF8C00"/>
<path d="M439.615 168.292C433.777 168.292 429.044 163.547 429.044 157.693C429.044 151.84 433.777 147.094 439.615 147.094C445.453 147.094 450.185 151.84 450.185 157.693C450.185 163.547 445.453 168.292 439.615 168.292Z" stroke="white" stroke-width="13.783" stroke-linecap="round" stroke-linejoin="round"/>
<path d="M429.045 157.693H405.791V167.232" stroke="white" stroke-width="13.783" stroke-linecap="round" stroke-linejoin="round"/>
<path d="M299.633 316.774C299.633 316.774 296.426 289.073 287.667 277.483C279 266.016 250.881 241.076 239.554 213.005C239.446 212.743 239.432 212.452 239.516 212.181C239.6 211.911 239.775 211.678 240.011 211.523C241.747 210.409 246.252 208.85 253.047 216.252C261.875 225.903 268.825 233.116 268.825 233.116C268.825 233.116 268.497 176.604 269.544 161.284C269.749 158.26 270.252 155.85 270.954 153.904C273.143 147.837 282.139 149.436 282.264 155.889L283.01 193.644C283.01 193.644 284.995 189.833 288.817 190.067C292.432 190.297 296.368 196.115 296.145 202.04C296.145 202.04 298.733 197.95 303.416 199.682C308.097 201.414 309.756 208.196 309.887 211.648C309.887 211.648 311.511 207.21 315.241 207.483C318.971 207.756 322.593 214.765 323 217.213C323.406 219.66 330.333 239.363 326.904 271.675L346.377 308.722C346.377 308.722 339.886 323.149 299.633 316.774Z" fill="#F8AE9D"/>
</g>
<defs>
<linearGradient id="paint0_linear_17_161" x1="297.807" y1="466.817" x2="292.628" y2="-199.821" gradientUnits="userSpaceOnUse">
<stop stop-color="white"/>
<stop offset="1" stop-color="#EEEEEE"/>
</linearGradient>
<linearGradient id="paint1_linear_17_161" x1="456.055" y1="317.79" x2="522.499" y2="265.374" gradientUnits="userSpaceOnUse">
<stop stop-color="white"/>
<stop offset="1" stop-color="#EEEEEE"/>
</linearGradient>
<linearGradient id="paint2_linear_17_161" x1="96.1992" y1="253.761" x2="1.50664" y2="166.015" gradientUnits="userSpaceOnUse">
<stop stop-color="white"/>
<stop offset="1" stop-color="#EEEEEE"/>
</linearGradient>
<clipPath id="clip0_17_161">
<rect width="558" height="373" fill="white"/>
</clipPath>
</defs>
</svg>
</svg>